<mxfile host="65bd71144e">
    <diagram id="2AC9LZ7GTcQqu8HZiJmk" name="Page-1">
        <mxGraphModel dx="3713" dy="1623" grid="1" gridSize="10" guides="1" tooltips="1" connect="1" arrows="1" fold="1" page="1" pageScale="1" pageWidth="850" pageHeight="1100" math="0" shadow="0">
            <root>
                <mxCell id="0"/>
                <mxCell id="1" parent="0"/>
                <mxCell id="2" value="Player" style="rounded=0;whiteSpace=wrap;html=1;" parent="1" vertex="1">
                    <mxGeometry x="140" y="170" width="90" height="20" as="geometry"/>
                </mxCell>
                <mxCell id="4" value="&lt;font style=&quot;font-size: 8px;&quot;&gt;+ clone(): Player&lt;/font&gt;" style="rounded=0;whiteSpace=wrap;html=1;align=left;" parent="1" vertex="1">
                    <mxGeometry x="140" y="190" width="90" height="20" as="geometry"/>
                </mxCell>
                <mxCell id="6" value="Entity" style="rounded=0;whiteSpace=wrap;html=1;" parent="1" vertex="1">
                    <mxGeometry x="290" y="170" width="210" height="20" as="geometry"/>
                </mxCell>
                <mxCell id="7" value="&lt;font style=&quot;font-size: 8px;&quot;&gt;- _component_сontainer:&amp;nbsp;&lt;/font&gt;&lt;span style=&quot;text-align: center;&quot;&gt;&lt;font style=&quot;font-size: 8px;&quot;&gt;ECS_ComponentContainer&lt;/font&gt;&lt;/span&gt;" style="rounded=0;whiteSpace=wrap;html=1;align=left;" parent="1" vertex="1">
                    <mxGeometry x="290" y="190" width="210" height="20" as="geometry"/>
                </mxCell>
                <mxCell id="8" value="&lt;font style=&quot;font-size: 8px;&quot;&gt;+&amp;nbsp;clone_container_to(Entity&amp;amp;): void&lt;br&gt;+ clone(): Enitity&lt;br&gt;+ add(T): Entity&amp;amp;&lt;br&gt;+ ref_unsafe(ECS_Index&amp;lt;T&amp;gt;): T&amp;amp;&lt;br&gt;+ time_sync(): void&lt;br&gt;+ index(): ECS_Index&amp;lt;T&amp;gt;&lt;br&gt;&lt;/font&gt;" style="rounded=0;whiteSpace=wrap;html=1;align=left;" parent="1" vertex="1">
                    <mxGeometry x="290" y="210" width="210" height="90" as="geometry"/>
                </mxCell>
                <mxCell id="9" value="ECS_Index&amp;lt;T&amp;gt;" style="rounded=0;whiteSpace=wrap;html=1;fontSize=12;" parent="1" vertex="1">
                    <mxGeometry x="530" y="170" width="120" height="30" as="geometry"/>
                </mxCell>
                <mxCell id="10" value="&lt;font style=&quot;font-size: 8px;&quot;&gt;- _index: u32&lt;br&gt;- _success: bool&lt;br&gt;&lt;/font&gt;" style="rounded=0;whiteSpace=wrap;html=1;fontSize=12;align=left;" parent="1" vertex="1">
                    <mxGeometry x="530" y="200" width="120" height="30" as="geometry"/>
                </mxCell>
                <mxCell id="11" value="+ ECS_Index(): ECS_Index&lt;br&gt;+ ECS_Index(u32): ECS_Index&lt;br&gt;+ ECS_Index(bool): ECS_Index&lt;br&gt;+ is_success(): bool&lt;br&gt;+ get(): u32" style="rounded=0;whiteSpace=wrap;html=1;fontSize=8;align=left;" parent="1" vertex="1">
                    <mxGeometry x="530" y="230" width="120" height="60" as="geometry"/>
                </mxCell>
                <mxCell id="12" value="&lt;font style=&quot;font-size: 12px;&quot;&gt;ECS_ComponentContainer&lt;/font&gt;" style="rounded=0;whiteSpace=wrap;html=1;fontSize=8;" parent="1" vertex="1">
                    <mxGeometry x="290" y="350" width="210" height="30" as="geometry"/>
                </mxCell>
                <mxCell id="13" value="&lt;span style=&quot;font-size: 8px;&quot;&gt;- _components: vector&amp;lt;ECS_Component&amp;gt;&lt;/span&gt;" style="rounded=0;whiteSpace=wrap;html=1;fontSize=12;align=left;" parent="1" vertex="1">
                    <mxGeometry x="290" y="380" width="210" height="30" as="geometry"/>
                </mxCell>
                <mxCell id="14" value="+&amp;nbsp;&lt;font style=&quot;font-size: 8px;&quot;&gt;ECS_ComponentContainer:&amp;nbsp;&lt;/font&gt;ECS_ComponentContainer&lt;br&gt;+ clone(): ECS_ComponentContainer&lt;br&gt;+ ref_unsafe(u32): T&lt;br&gt;+ add(T, void): void&lt;br&gt;+ time_sync()&lt;br&gt;+ index(): ECS_Index&amp;lt;T&amp;gt;&lt;br&gt;+ has(): bool&lt;br&gt;+ size(): u32" style="rounded=0;whiteSpace=wrap;html=1;fontSize=8;align=left;" parent="1" vertex="1">
                    <mxGeometry x="290" y="410" width="210" height="90" as="geometry"/>
                </mxCell>
                <mxCell id="18" value="" style="rhombus;whiteSpace=wrap;html=1;fontSize=8;" parent="1" vertex="1">
                    <mxGeometry x="480" y="300" width="10" height="10" as="geometry"/>
                </mxCell>
                <mxCell id="19" value="" style="endArrow=none;html=1;fontSize=8;entryX=0.929;entryY=-0.001;entryDx=0;entryDy=0;entryPerimeter=0;" parent="1" target="12" edge="1">
                    <mxGeometry width="50" height="50" relative="1" as="geometry">
                        <mxPoint x="485" y="310" as="sourcePoint"/>
                        <mxPoint x="250" y="210" as="targetPoint"/>
                    </mxGeometry>
                </mxCell>
                <mxCell id="23" value="&lt;font style=&quot;font-size: 12px;&quot;&gt;ECS_2DPhysicsRigidbody&lt;/font&gt;" style="rounded=0;whiteSpace=wrap;html=1;fontSize=8;" parent="1" vertex="1">
                    <mxGeometry x="-60" y="250" width="260" height="30" as="geometry"/>
                </mxCell>
                <mxCell id="25" value="&lt;div style=&quot;&quot;&gt;&lt;span style=&quot;font-size: 8px; background-color: initial;&quot;&gt;- _parent: Entity*&lt;/span&gt;&lt;/div&gt;&lt;font style=&quot;&quot;&gt;&lt;div style=&quot;&quot;&gt;&lt;span style=&quot;font-size: 8px;&quot;&gt;&lt;br&gt;&lt;/span&gt;&lt;/div&gt;&lt;span style=&quot;font-size: 8px;&quot;&gt;&lt;div style=&quot;&quot;&gt;&lt;span style=&quot;background-color: initial;&quot;&gt;- _posIndex: ECS_Index&amp;lt;ECS_Positioned&amp;gt;&lt;/span&gt;&lt;/div&gt;&lt;div style=&quot;&quot;&gt;&lt;span style=&quot;background-color: initial;&quot;&gt;- _colliderIndex: ECS_Index&amp;lt;ECS_MovableAABBCollider&amp;gt;&lt;/span&gt;&lt;/div&gt;&lt;div style=&quot;&quot;&gt;&lt;span style=&quot;background-color: initial;&quot;&gt;- _velocityIndex: ECS_Index&amp;lt;ECS_Velocity&amp;gt;&lt;/span&gt;&lt;/div&gt;&lt;div style=&quot;&quot;&gt;&lt;span style=&quot;background-color: initial;&quot;&gt;- _accelerationIndex: ECS_Index&amp;lt;ECS_Acceleration&amp;gt;&lt;/span&gt;&lt;/div&gt;&lt;div style=&quot;&quot;&gt;&lt;span style=&quot;background-color: initial;&quot;&gt;- _frictionIndex: ECS_Index&amp;lt;ECS_Friction&amp;gt;&lt;/span&gt;&lt;/div&gt;&lt;div style=&quot;&quot;&gt;&lt;span style=&quot;background-color: initial;&quot;&gt;- _physicsPositionedIndex: ECS_Index&amp;lt;ECS_PhysicsPositioned&amp;gt;&lt;/span&gt;&lt;/div&gt;&lt;/span&gt;&lt;/font&gt;" style="rounded=0;whiteSpace=wrap;html=1;fontSize=12;align=left;" parent="1" vertex="1">
                    <mxGeometry x="-60" y="280" width="260" height="100" as="geometry"/>
                </mxCell>
                <mxCell id="26" value="+ ECS_2DPhysicsRigidbody(Entity): ECS_2DPhysicsRigidbody&lt;br&gt;+ time_sync(): void&lt;br&gt;+ reindex(void): void&lt;br&gt;&lt;br&gt;+ update(): void&lt;br&gt;+ late_update(): void&lt;br&gt;&lt;br&gt;+ get_old_position(): void&lt;br&gt;+ get_new_position(): void&lt;br&gt;&lt;br&gt;+ clone(): shared_ptr&amp;lt;ECS_Component&amp;gt;" style="rounded=0;whiteSpace=wrap;html=1;fontSize=8;align=left;" parent="1" vertex="1">
                    <mxGeometry x="-60" y="380" width="260" height="120" as="geometry"/>
                </mxCell>
                <mxCell id="37" value="" style="rhombus;whiteSpace=wrap;html=1;fontSize=8;labelBackgroundColor=#1D1D1D;fillColor=#f5f5f5;gradientColor=none;strokeColor=none;" parent="1" vertex="1">
                    <mxGeometry x="280" y="390" width="10" height="10" as="geometry"/>
                </mxCell>
                <mxCell id="38" value="" style="endArrow=none;html=1;fontSize=8;entryX=0.999;entryY=0.127;entryDx=0;entryDy=0;entryPerimeter=0;exitX=0;exitY=0.5;exitDx=0;exitDy=0;" parent="1" source="37" target="26" edge="1">
                    <mxGeometry width="50" height="50" relative="1" as="geometry">
                        <mxPoint x="495" y="320" as="sourcePoint"/>
                        <mxPoint x="495.09000000000015" y="359.97" as="targetPoint"/>
                    </mxGeometry>
                </mxCell>
                <mxCell id="51" value="" style="endArrow=classic;html=1;exitX=1;exitY=0.5;exitDx=0;exitDy=0;entryX=0;entryY=0.5;entryDx=0;entryDy=0;" parent="1" source="4" target="7" edge="1">
                    <mxGeometry width="50" height="50" relative="1" as="geometry">
                        <mxPoint x="250" y="230" as="sourcePoint"/>
                        <mxPoint x="240" y="240" as="targetPoint"/>
                    </mxGeometry>
                </mxCell>
                <mxCell id="54" value="ECS_Component" style="rounded=0;whiteSpace=wrap;html=1;" parent="1" vertex="1">
                    <mxGeometry x="-60" y="570" width="180" height="30" as="geometry"/>
                </mxCell>
                <mxCell id="55" value="" style="rounded=0;whiteSpace=wrap;html=1;" parent="1" vertex="1">
                    <mxGeometry x="-60" y="600" width="180" height="20" as="geometry"/>
                </mxCell>
                <mxCell id="56" value="&lt;font style=&quot;font-size: 8px;&quot;&gt;+&amp;nbsp;~ECS_Component(): void&lt;br&gt;+&amp;nbsp;time_sync(): void&lt;br&gt;+&amp;nbsp;reindex(void*): void&lt;br&gt;+ bind_parent(void*): void&lt;br&gt;+ clone(): shared_ptr&amp;lt;ECS_Component&amp;gt;&lt;br&gt;+ byte_size(): u64&lt;/font&gt;" style="rounded=0;whiteSpace=wrap;align=left;verticalAlign=middle;html=1;" parent="1" vertex="1">
                    <mxGeometry x="-60" y="620" width="180" height="100" as="geometry"/>
                </mxCell>
                <mxCell id="57" value="" style="endArrow=classic;html=1;exitX=0.346;exitY=0.997;exitDx=0;exitDy=0;entryX=0.5;entryY=0;entryDx=0;entryDy=0;exitPerimeter=0;" parent="1" source="26" target="54" edge="1">
                    <mxGeometry width="50" height="50" relative="1" as="geometry">
                        <mxPoint x="300" y="210" as="sourcePoint"/>
                        <mxPoint x="50" y="530" as="targetPoint"/>
                    </mxGeometry>
                </mxCell>
                <mxCell id="59" value="&lt;font style=&quot;font-size: 12px;&quot;&gt;ECS_AABBCollider&lt;/font&gt;" style="rounded=0;whiteSpace=wrap;html=1;fontSize=8;" vertex="1" parent="1">
                    <mxGeometry x="180" y="600" width="260" height="30" as="geometry"/>
                </mxCell>
                <mxCell id="60" value="&lt;div style=&quot;&quot;&gt;&lt;span style=&quot;font-size: 8px; background-color: initial;&quot;&gt;- _parent: Entity*&lt;/span&gt;&lt;/div&gt;&lt;font style=&quot;&quot;&gt;&lt;div style=&quot;&quot;&gt;&lt;span style=&quot;font-size: 8px;&quot;&gt;&lt;br&gt;&lt;/span&gt;&lt;/div&gt;&lt;span style=&quot;font-size: 8px;&quot;&gt;&lt;div style=&quot;&quot;&gt;&lt;span style=&quot;background-color: initial;&quot;&gt;- _posIndex: ECS_Index&amp;lt;ECS_Positioned&amp;gt;&lt;/span&gt;&lt;/div&gt;&lt;div style=&quot;&quot;&gt;&lt;span style=&quot;background-color: initial;&quot;&gt;- _scaleIndex: ECS_Index&amp;lt;ECS_Scaled&amp;gt;&lt;/span&gt;&lt;/div&gt;&lt;div style=&quot;&quot;&gt;&lt;span style=&quot;background-color: initial;&quot;&gt;- _colliderMeshIndex: ECS_Index&amp;lt;ECS_BoxColliderMesh&amp;gt;&lt;/span&gt;&lt;/div&gt;&lt;div style=&quot;&quot;&gt;&lt;br&gt;&lt;/div&gt;&lt;div style=&quot;&quot;&gt;- _collisionLayer: u64&lt;/div&gt;&lt;div style=&quot;&quot;&gt;- _collisionLayerTarget: u64&lt;br&gt;&lt;/div&gt;&lt;div style=&quot;&quot;&gt;&lt;br&gt;&lt;/div&gt;&lt;div style=&quot;&quot;&gt;- _colliding: bool&lt;/div&gt;&lt;div style=&quot;&quot;&gt;- _collideWith: ECS_AABBCollider&lt;/div&gt;&lt;div style=&quot;&quot;&gt;- _collisionPoint: Vec2f&lt;/div&gt;&lt;div style=&quot;&quot;&gt;- _collisionSide: CollisionSide&lt;/div&gt;&lt;/span&gt;&lt;/font&gt;" style="rounded=0;whiteSpace=wrap;html=1;fontSize=12;align=left;" vertex="1" parent="1">
                    <mxGeometry x="180" y="630" width="260" height="150" as="geometry"/>
                </mxCell>
                <mxCell id="61" value="+ ECS_AABBCollider(u64 collisionLayer, u64 collisionLayerTarget): ECS_AABBCollider&lt;br&gt;+ time_sync(): void&lt;br&gt;+ reindex(void): void&lt;br&gt;&lt;br&gt;+ collide(ECS_AABBCollider*): void&lt;br&gt;+ reset_collision(): void&lt;br&gt;&lt;br&gt;+ is_colliding(): bool&lt;br&gt;+ get_collision_layer(): u64&lt;br&gt;&lt;br&gt;+ get_collision_with(): ECS_AABBCollider*&lt;br&gt;+ get_collision_point(): Vec2f&lt;br&gt;+ get_collision_side(): CollisionSide&lt;br&gt;&lt;br&gt;+ clone(): shared_ptr&amp;lt;ECS_Component&amp;gt;" style="rounded=0;whiteSpace=wrap;html=1;fontSize=8;align=left;" vertex="1" parent="1">
                    <mxGeometry x="180" y="780" width="260" height="170" as="geometry"/>
                </mxCell>
                <mxCell id="62" value="&lt;font style=&quot;font-size: 12px;&quot;&gt;ECS_MovableAABBCollider&lt;/font&gt;" style="rounded=0;whiteSpace=wrap;html=1;fontSize=8;" vertex="1" parent="1">
                    <mxGeometry x="360" y="1020" width="260" height="30" as="geometry"/>
                </mxCell>
                <mxCell id="63" value="&lt;div style=&quot;&quot;&gt;&lt;span style=&quot;background-color: initial; font-size: 8px;&quot;&gt;- _velocityIndex: ECS_Index&amp;lt;ECS_Velocity&amp;gt;&lt;/span&gt;&lt;br&gt;&lt;/div&gt;&lt;font style=&quot;&quot;&gt;&lt;span style=&quot;font-size: 8px;&quot;&gt;&lt;div style=&quot;&quot;&gt;&lt;span style=&quot;background-color: initial;&quot;&gt;- _physicsPositioned: ECS_Index&amp;lt;ECS_PhysicsPositioned&amp;gt;&lt;/span&gt;&lt;/div&gt;&lt;div style=&quot;&quot;&gt;&lt;br&gt;&lt;/div&gt;&lt;div style=&quot;&quot;&gt;- _collisionLayer: u64&lt;/div&gt;&lt;div style=&quot;&quot;&gt;- _collisionLayerTarget: u64&lt;br&gt;&lt;/div&gt;&lt;div style=&quot;&quot;&gt;&lt;br&gt;&lt;/div&gt;&lt;div style=&quot;&quot;&gt;- _collidingY: bool&lt;/div&gt;&lt;div style=&quot;&quot;&gt;- _collideWithY: ECS_AABBCollider&lt;/div&gt;&lt;div style=&quot;&quot;&gt;- _collisionPointY: Vec2f&lt;/div&gt;&lt;div style=&quot;&quot;&gt;- _collisionSideY: CollisionSide&lt;/div&gt;&lt;/span&gt;&lt;/font&gt;" style="rounded=0;whiteSpace=wrap;html=1;fontSize=12;align=left;" vertex="1" parent="1">
                    <mxGeometry x="360" y="1050" width="260" height="120" as="geometry"/>
                </mxCell>
                <mxCell id="64" value="+ ECS_MovableAABBCollider(u64 collisionLayer, u64 collisionLayerTarget): ECS_MovableAABBCollider&lt;br&gt;+ time_sync(): void&lt;br&gt;+ reindex(void): void&lt;br&gt;&lt;br&gt;+ collide(ECS_AABBCollider*): void&lt;br&gt;+ reset_collision(): void&lt;br&gt;&lt;br&gt;+ is_colliding_by_x(): bool&lt;br&gt;+ get_collision_with_by_x(): ECS_AABBCollider*&lt;br&gt;+ get_collision_point_by_x(): Vec2f&lt;br&gt;+ get_collision_side_by_x(): CollisionSide&lt;br&gt;&lt;br&gt;+ is_colliding_by_y(): bool&lt;br&gt;+ get_collision_with_by_y(): ECS_AABBCollider*&lt;br&gt;+ get_collision_point_by_y(): Vec2f&lt;br&gt;+ get_collision_side_by_y(): CollisionSide&lt;br&gt;&lt;br&gt;+ clone(): shared_ptr&amp;lt;ECS_Component&amp;gt;" style="rounded=0;whiteSpace=wrap;html=1;fontSize=8;align=left;" vertex="1" parent="1">
                    <mxGeometry x="360" y="1170" width="260" height="210" as="geometry"/>
                </mxCell>
                <mxCell id="65" value="&lt;font style=&quot;font-size: 12px;&quot;&gt;ECS_TriggerAABBCollider&lt;/font&gt;" style="rounded=0;whiteSpace=wrap;html=1;fontSize=8;" vertex="1" parent="1">
                    <mxGeometry x="-20" y="1020" width="260" height="30" as="geometry"/>
                </mxCell>
                <mxCell id="66" value="&lt;div style=&quot;&quot;&gt;&lt;span style=&quot;font-size: 8px;&quot;&gt;- _isTriggered: bool&lt;/span&gt;&lt;/div&gt;" style="rounded=0;whiteSpace=wrap;html=1;fontSize=12;align=left;" vertex="1" parent="1">
                    <mxGeometry x="-20" y="1050" width="260" height="30" as="geometry"/>
                </mxCell>
                <mxCell id="67" value="+ ECS_TriggerAABBCollider(u64 collisionLayer, u64 collisionLayerTarget): ECS_AABBCollider&lt;br&gt;&lt;br&gt;+ collide(ECS_AABBCollider*): void&lt;br&gt;+ reset_collision(): void&lt;br&gt;&lt;br&gt;+ is_triggered(): bool&lt;br&gt;&lt;br&gt;+ clone(): shared_ptr&amp;lt;ECS_Component&amp;gt;" style="rounded=0;whiteSpace=wrap;html=1;fontSize=8;align=left;" vertex="1" parent="1">
                    <mxGeometry x="-20" y="1080" width="260" height="100" as="geometry"/>
                </mxCell>
                <mxCell id="68" value="" style="endArrow=classic;html=1;exitX=0.153;exitY=-0.005;exitDx=0;exitDy=0;exitPerimeter=0;entryX=0.846;entryY=1;entryDx=0;entryDy=0;entryPerimeter=0;" edge="1" parent="1" source="62" target="61">
                    <mxGeometry width="50" height="50" relative="1" as="geometry">
                        <mxPoint x="340" y="1070" as="sourcePoint"/>
                        <mxPoint x="390" y="1020" as="targetPoint"/>
                    </mxGeometry>
                </mxCell>
                <mxCell id="69" value="" style="endArrow=classic;html=1;entryX=0.076;entryY=1.005;entryDx=0;entryDy=0;entryPerimeter=0;exitX=0.847;exitY=-0.009;exitDx=0;exitDy=0;exitPerimeter=0;" edge="1" parent="1" source="65" target="61">
                    <mxGeometry width="50" height="50" relative="1" as="geometry">
                        <mxPoint x="250" y="1050" as="sourcePoint"/>
                        <mxPoint x="300" y="1000" as="targetPoint"/>
                    </mxGeometry>
                </mxCell>
                <mxCell id="70" value="" style="endArrow=classic;html=1;exitX=0;exitY=0.25;exitDx=0;exitDy=0;entryX=0.998;entryY=0.479;entryDx=0;entryDy=0;entryPerimeter=0;" edge="1" parent="1" source="60" target="56">
                    <mxGeometry width="50" height="50" relative="1" as="geometry">
                        <mxPoint x="150" y="680" as="sourcePoint"/>
                        <mxPoint x="200" y="630" as="targetPoint"/>
                    </mxGeometry>
                </mxCell>
            </root>
        </mxGraphModel>
    </diagram>
</mxfile>